<svg width="16" height="16" viewBox="0 0 16 16" fill="none" xmlns="http://www.w3.org/2000/svg">
<path d="M14.2857 0H1.71429C0.7675 0 0 0.7675 0 1.71429V14.2857C0 15.2325 0.7675 16 1.71429 16H14.2857C15.2325 16 16 15.2325 16 14.2857V1.71429C16 0.7675 15.2325 0 14.2857 0ZM14.2857 1.14286C14.6008 1.14286 14.8571 1.39921 14.8571 1.71429V14.2857C14.8571 14.6008 14.6008 14.8571 14.2857 14.8571H1.71429C1.39921 14.8571 1.14286 14.6008 1.14286 14.2857V1.71429C1.14286 1.39921 1.39921 1.14286 1.71429 1.14286H14.2857ZM13.0607 4.65332L12.7589 4.34904C12.5922 4.181 12.3208 4.17989 12.1528 4.34661L6.31561 10.137L3.85218 7.65364C3.6855 7.48561 3.41414 7.4845 3.24611 7.65121L2.94182 7.95304C2.77379 8.11971 2.77268 8.39107 2.93939 8.55911L6.00646 11.651C6.17314 11.819 6.4445 11.8201 6.61254 11.6534L13.0583 5.25939C13.2263 5.09271 13.2274 4.82136 13.0607 4.65332V4.65332Z" fill="url(#paint0_linear_119_259)"/>
<defs>
<linearGradient id="paint0_linear_119_259" x1="8" y1="0" x2="8" y2="16" gradientUnits="userSpaceOnUse">
<stop stop-color="#F6E05E"/>
<stop offset="1" stop-color="#B7791F"/>
</linearGradient>
</defs>
</svg>
