<svg width="21" height="16" viewBox="0 0 21 16" fill="none" xmlns="http://www.w3.org/2000/svg">
<path d="M17.8047 1.35131C17.7989 1.34 17.7892 1.33114 17.7774 1.32631C16.4159 0.701617 14.9791 0.256162 13.5029 0.00109263C13.4895 -0.00140062 13.4757 0.000398044 13.4633 0.00623282C13.451 0.0120676 13.4408 0.0216414 13.4342 0.0335927C13.2386 0.388697 13.061 0.753448 12.9021 1.12645C11.3109 0.88491 9.69236 0.88491 8.10116 1.12645C7.94122 0.7525 7.76077 0.387659 7.56062 0.0335927C7.55376 0.0219011 7.54353 0.0125478 7.53128 0.00675094C7.51902 0.000954065 7.5053 -0.00101767 7.49191 0.00109263C6.01561 0.255627 4.5787 0.701115 3.21733 1.32635C3.20567 1.33129 3.19584 1.33972 3.18918 1.35049C0.466711 5.41614 -0.279077 9.38183 0.086781 13.2984C0.0878102 13.308 0.0907593 13.3173 0.0954529 13.3257C0.100147 13.3342 0.106489 13.3416 0.114102 13.3475C1.69937 14.5213 3.47252 15.4172 5.35787 15.9971C5.37114 16.0011 5.38532 16.0009 5.39849 15.9966C5.41167 15.9923 5.4232 15.9841 5.43155 15.973C5.83648 15.422 6.19528 14.8386 6.5043 14.2286C6.50855 14.2203 6.51097 14.2111 6.51141 14.2017C6.51186 14.1923 6.51031 14.183 6.50687 14.1742C6.50343 14.1655 6.49818 14.1576 6.49146 14.151C6.48475 14.1445 6.47672 14.1394 6.46791 14.1362C5.9021 13.9197 5.35434 13.6587 4.82976 13.3557C4.82023 13.3501 4.81223 13.3423 4.80646 13.3328C4.80069 13.3234 4.79733 13.3127 4.79667 13.3017C4.79602 13.2906 4.79809 13.2796 4.80271 13.2696C4.80733 13.2595 4.81435 13.2508 4.82315 13.2441C4.93322 13.1616 5.04337 13.0758 5.14847 12.9892C5.15781 12.9815 5.16911 12.9766 5.1811 12.975C5.19309 12.9733 5.20529 12.9751 5.21633 12.9801C8.65309 14.5485 12.3739 14.5485 15.7699 12.9801C15.781 12.9748 15.7933 12.9728 15.8055 12.9743C15.8177 12.9757 15.8292 12.9806 15.8386 12.9884C15.9438 13.075 16.0539 13.1616 16.1648 13.2441C16.1736 13.2507 16.1807 13.2594 16.1854 13.2694C16.1901 13.2794 16.1923 13.2904 16.1917 13.3015C16.1911 13.3125 16.1878 13.3232 16.1821 13.3327C16.1764 13.3422 16.1685 13.3501 16.159 13.3557C15.6356 13.6613 15.0874 13.9221 14.5201 14.1354C14.5113 14.1387 14.5033 14.1439 14.4966 14.1506C14.4899 14.1572 14.4847 14.1652 14.4814 14.174C14.478 14.1828 14.4765 14.1922 14.477 14.2016C14.4775 14.2111 14.48 14.2203 14.4844 14.2286C14.7986 14.8352 15.1568 15.4179 15.5563 15.972C15.5644 15.9834 15.5759 15.9919 15.5891 15.9964C15.6023 16.0009 15.6166 16.0011 15.63 15.997C17.5187 15.4191 19.2949 14.5231 20.8822 13.3475C20.8899 13.3419 20.8964 13.3347 20.9011 13.3263C20.9058 13.318 20.9087 13.3088 20.9095 13.2992C21.3475 8.77126 20.1762 4.83807 17.8047 1.35131ZM7.01755 10.9136C5.98283 10.9136 5.13026 9.96409 5.13026 8.79794C5.13026 7.63179 5.9663 6.68218 7.01755 6.68218C8.07702 6.68218 8.92134 7.64004 8.90481 8.79787C8.90481 9.96408 8.06873 10.9136 7.01755 10.9136ZM13.9954 10.9136C12.9607 10.9136 12.1082 9.96409 12.1082 8.79794C12.1082 7.63179 12.9442 6.68218 13.9954 6.68218C15.055 6.68218 15.8993 7.64004 15.8827 8.79787C15.8827 9.96408 15.055 10.9136 13.9954 10.9136Z" fill="#CBD0D9"/>
</svg>
