<svg width="36" height="36" viewBox="0 0 36 36" fill="none" xmlns="http://www.w3.org/2000/svg">
<rect width="36" height="36" rx="4" fill="#6B46C1"/>
<path d="M25.8047 11.3513C25.7989 11.34 25.7892 11.3311 25.7774 11.3263C24.4159 10.7016 22.9791 10.2562 21.5029 10.0011C21.4895 9.9986 21.4757 10.0004 21.4633 10.0062C21.451 10.0121 21.4408 10.0216 21.4342 10.0336C21.2386 10.3887 21.061 10.7534 20.9021 11.1265C19.3109 10.8849 17.6924 10.8849 16.1012 11.1265C15.9412 10.7525 15.7608 10.3877 15.5606 10.0336C15.5538 10.0219 15.5435 10.0125 15.5313 10.0068C15.519 10.001 15.5053 9.99898 15.4919 10.0011C14.0156 10.2556 12.5787 10.7011 11.2173 11.3263C11.2057 11.3313 11.1958 11.3397 11.1892 11.3505C8.46671 15.4161 7.72092 19.3818 8.08678 23.2984C8.08781 23.308 8.09076 23.3173 8.09545 23.3257C8.10015 23.3342 8.10649 23.3416 8.1141 23.3475C9.69937 24.5213 11.4725 25.4172 13.3579 25.9971C13.3711 26.0011 13.3853 26.0009 13.3985 25.9966C13.4117 25.9923 13.4232 25.9841 13.4315 25.973C13.8365 25.422 14.1953 24.8386 14.5043 24.2286C14.5085 24.2203 14.511 24.2111 14.5114 24.2017C14.5119 24.1923 14.5103 24.183 14.5069 24.1742C14.5034 24.1655 14.4982 24.1576 14.4915 24.151C14.4847 24.1445 14.4767 24.1394 14.4679 24.1362C13.9021 23.9197 13.3543 23.6587 12.8298 23.3557C12.8202 23.3501 12.8122 23.3423 12.8065 23.3328C12.8007 23.3234 12.7973 23.3127 12.7967 23.3017C12.796 23.2906 12.7981 23.2796 12.8027 23.2696C12.8073 23.2595 12.8143 23.2508 12.8232 23.2441C12.9332 23.1616 13.0434 23.0758 13.1485 22.9892C13.1578 22.9815 13.1691 22.9766 13.1811 22.975C13.1931 22.9733 13.2053 22.9751 13.2163 22.9801C16.6531 24.5485 20.3739 24.5485 23.7699 22.9801C23.781 22.9748 23.7933 22.9728 23.8055 22.9743C23.8177 22.9757 23.8292 22.9806 23.8386 22.9884C23.9438 23.075 24.0539 23.1616 24.1648 23.2441C24.1736 23.2507 24.1807 23.2594 24.1854 23.2694C24.1901 23.2794 24.1923 23.2904 24.1917 23.3015C24.1911 23.3125 24.1878 23.3232 24.1821 23.3327C24.1764 23.3422 24.1685 23.3501 24.159 23.3557C23.6356 23.6613 23.0874 23.9221 22.5201 24.1354C22.5113 24.1387 22.5033 24.1439 22.4966 24.1506C22.4899 24.1572 22.4847 24.1652 22.4814 24.174C22.478 24.1828 22.4765 24.1922 22.477 24.2016C22.4775 24.2111 22.48 24.2203 22.4844 24.2286C22.7986 24.8352 23.1568 25.4179 23.5563 25.972C23.5644 25.9834 23.5759 25.9919 23.5891 25.9964C23.6023 26.0009 23.6166 26.0011 23.63 25.997C25.5187 25.4191 27.2949 24.5231 28.8822 23.3475C28.8899 23.3419 28.8964 23.3347 28.9011 23.3263C28.9058 23.318 28.9087 23.3088 28.9095 23.2992C29.3475 18.7713 28.1762 14.8381 25.8047 11.3513ZM15.0176 20.9136C13.9828 20.9136 13.1303 19.9641 13.1303 18.7979C13.1303 17.6318 13.9663 16.6822 15.0176 16.6822C16.077 16.6822 16.9213 17.64 16.9048 18.7979C16.9048 19.9641 16.0687 20.9136 15.0176 20.9136ZM21.9954 20.9136C20.9607 20.9136 20.1082 19.9641 20.1082 18.7979C20.1082 17.6318 20.9442 16.6822 21.9954 16.6822C23.055 16.6822 23.8993 17.64 23.8827 18.7979C23.8827 19.9641 23.055 20.9136 21.9954 20.9136Z" fill="#F7FAFC"/>
</svg>
