<svg width="36" height="36" viewBox="0 0 36 36" fill="none" xmlns="http://www.w3.org/2000/svg">
<rect width="36" height="36" rx="4" fill="#63B3ED"/>
<path d="M25.675 13.9875C25.6875 14.1625 25.6875 14.3375 25.6875 14.5125C25.6875 19.85 21.625 26 14.2 26C11.9125 26 9.78751 25.3375 8 24.1875C8.32501 24.225 8.63748 24.2375 8.975 24.2375C10.8625 24.2375 12.6 23.6 13.9875 22.5125C12.2125 22.475 10.725 21.3125 10.2125 19.7125C10.4625 19.75 10.7125 19.775 10.975 19.775C11.3375 19.775 11.7 19.725 12.0375 19.6375C10.1875 19.2625 8.79997 17.6375 8.79997 15.675V15.625C9.33745 15.925 9.9625 16.1125 10.625 16.1375C9.53745 15.4125 8.82498 14.175 8.82498 12.775C8.82498 12.025 9.02494 11.3375 9.37496 10.7375C11.3625 13.1875 14.35 14.7875 17.7 14.9625C17.6375 14.6625 17.6 14.35 17.6 14.0375C17.6 11.8125 19.4 10 21.6375 10C22.8 10 23.8499 10.4875 24.5875 11.275C25.4999 11.1 26.3749 10.7625 27.15 10.3C26.8499 11.2375 26.2124 12.025 25.375 12.525C26.1875 12.4375 26.975 12.2125 27.6999 11.9C27.15 12.7 26.4625 13.4125 25.675 13.9875V13.9875Z" fill="#F7FAFC"/>
</svg>
